#!OML:ASF H:\ManfredETheater\Project 1\Capture day 1\Session 1\subject.ASF
:FULLY-SPECIFIED
:DEGREES
154
root -0.50772 15.3332 -18.5105 -184.141 -18.4666 -175.559
lowerback 18.7541 1.4232 1.75251
upperback 0.875465 2.25659 2.53265
thorax -9.62021 0.95091 1.1797
lowerneck -12.6374 -1.13993 -2.46291
upperneck 11.2801 -1.05413 -0.564254
head 5.48584 -0.68122 0.133035
rclavicle -3.78685e-014 7.95139e-015
rhumerus -33.5757 13.3044 -91.1916
rradius 67.2141
rwrist 2.98047
rhand -30.0622 4.23608
rfingers 7.12502
rthumb -3.37755 -25.7169
lclavicle -3.78685e-014 7.95139e-015
lhumerus -36.8238 1.86532 89.212
lradius 51.2327
lwrist -1.21449
lhand -24.1391 -12.6088
lfingers 7.12502
lthumb 2.34298 17.358
rfemur -25.5985 -2.6304 18.2665
rtibia 75.8016
rfoot -32.2634 -11.9158
rtoes -37.8758
lfemur -39.8287 3.78148 -14.6525
ltibia 86.5653
lfoot -26.3552 -8.67108
ltoes -11.0022
155
root -0.633555 15.3547 -18.7185 -183.446 -18.8518 -175.377
lowerback 18.7394 1.28262 2.18097
upperback 0.554497 2.19068 2.46192
thorax -9.94761 0.905017 0.875136
lowerneck -12.9015 -1.17852 -2.4508
upperneck 11.0756 -1.10905 -0.448496
head 5.46673 -0.693712 0.162268
rclavicle 1.54058e-015 -1.86858e-014
rhumerus -32.7402 16.4309 -91.9597
rradius 72.5123
rwrist 5.54297
rhand -30.2017 4.14188
rfingers 7.12502
rthumb -3.51229 -25.8089
lclavicle 1.54058e-015 -1.86858e-014
lhumerus -35.4027 -1.6352 91.7606
lradius 54.8243
lwrist -0.87186
lhand -23.7551 -13.1152
lfingers 7.12502
lthumb 2.71391 16.8472
rfemur -26.0489 -3.2674 18.1961
rtibia 76.7605
rfoot -31.0048 -11.4047
rtoes -38.5326
lfemur -39.792 3.67237 -14.6454
ltibia 86.7304
lfoot -26.5649 -9.16825
ltoes -11.2085
156
root -0.758023 15.3835 -18.9273 -182.74 -19.3027 -175.237
lowerback 18.7144 1.13238 2.55863
upperback 0.245429 2.09771 2.36671
thorax -10.2597 0.845539 0.580378
lowerneck -13.1433 -1.22573 -2.43276
upperneck 10.8449 -1.1805 -0.313817
head 5.43587 -0.712658 0.195218
rclavicle 1.27719e-014 2.26615e-014
rhumerus -31.8927 18.855 -92.2798
rradius 77.4813
rwrist 6.65215
rhand -30.1871 4.57393
rfingers 7.12502
rthumb -3.49818 -25.3771
lclavicle 1.27719e-014 2.26615e-014
lhumerus -34.056 -4.99779 93.7703
lradius 58.5731
lwrist 0.663108
lhand -23.2432 -13.4177
lfingers 7.12502
lthumb 3.20824 16.5379
rfemur -26.6401 -3.91096 18.1193
rtibia 77.8329
rfoot -29.2567 -10.8559
rtoes -39.0637
lfemur -39.664 3.49063 -14.6617
ltibia 86.7154
lfoot -26.7421 -9.7324
ltoes -11.1968
157
root -0.880824 15.4192 -19.1392 -182.023 -19.799 -175.191
lowerback 18.6731 0.978175 2.81688
upperback -0.0380359 1.96811 2.23608
thorax -10.5401 0.772243 0.324924
lowerneck -13.3677 -1.27501 -2.4017
upperneck 10.6014 -1.26147 -0.155059
head 5.3982 -0.734258 0.232862
rclavicle 4.94477e-015 -3.02153e-014
rhumerus -31.0151 20.6582 -92.263
rradius 81.9763
rwrist 6.21371
rhand -30.1082 5.32335
rfingers 7.12502
rthumb -3.42197 -24.6289
lclavicle 4.94477e-015 -3.02153e-014
lhumerus -32.7185 -8.12402 95.2539
lradius 62.3315
lwrist 2.94289
lhand -22.6102 -13.5863
lfingers 7.12502
lthumb 3.8195 16.3592
rfemur -27.352 -4.54797 17.9913
rtibia 79.0056
rfoot -27.0362 -10.2873
rtoes -39.2347
lfemur -39.4106 3.26109 -14.7513
ltibia 86.5205
lfoot -26.9085 -10.3178
ltoes -11.1206
